<?xml version="1.0" encoding="UTF-8" standalone="no"?>
<!-- Created with Inkscape (http://www.inkscape.org/) -->

<svg
   xmlns:dc="http://purl.org/dc/elements/1.1/"
   xmlns:cc="http://creativecommons.org/ns#"
   xmlns:rdf="http://www.w3.org/1999/02/22-rdf-syntax-ns#"
   xmlns:svg="http://www.w3.org/2000/svg"
   xmlns="http://www.w3.org/2000/svg"
   xmlns:sodipodi="http://sodipodi.sourceforge.net/DTD/sodipodi-0.dtd"
   xmlns:inkscape="http://www.inkscape.org/namespaces/inkscape"
   width="210mm"
   height="297mm"
   viewBox="0 0 744.09448819 1052.3622047"
   id="svg2"
   version="1.1"
   inkscape:version="0.91 r13725"
   sodipodi:docname="rl-logo.svg">
  <defs
     id="defs4" />
  <sodipodi:namedview
     id="base"
     pagecolor="#ffffff"
     bordercolor="#666666"
     borderopacity="1.0"
     inkscape:pageopacity="0.0"
     inkscape:pageshadow="2"
     inkscape:zoom="1.4142136"
     inkscape:cx="846.76365"
     inkscape:cy="657.96944"
     inkscape:document-units="px"
     inkscape:current-layer="layer1"
     showgrid="false"
     inkscape:window-width="3200"
     inkscape:window-height="1752"
     inkscape:window-x="0"
     inkscape:window-y="48"
     inkscape:window-maximized="1" />
  <metadata
     id="metadata7">
    <rdf:RDF>
      <cc:Work
         rdf:about="">
        <dc:format>image/svg+xml</dc:format>
        <dc:type
           rdf:resource="http://purl.org/dc/dcmitype/StillImage" />
        <dc:title></dc:title>
      </cc:Work>
    </rdf:RDF>
  </metadata>
  <g
     inkscape:label="Layer 1"
     inkscape:groupmode="layer"
     id="layer1">
    <circle
       style="fill:#000000;stroke-width:14.69999981;stroke-miterlimit:4;stroke-dasharray:none"
       id="path4198"
       cx="192.33304"
       cy="920.13324"
       r="79.903069"
       inkscape:export-filename="/home/robin/blog/themes/hugo-lithium-theme/static/images/logo.png"
       inkscape:export-xdpi="61.950001"
       inkscape:export-ydpi="61.950001" />
    <text
       xml:space="preserve"
       style="font-style:normal;font-weight:normal;font-size:121.95721436px;line-height:125%;font-family:sans-serif;letter-spacing:0px;word-spacing:0px;fill:#ffffff;fill-opacity:1;stroke:none;stroke-width:1px;stroke-linecap:butt;stroke-linejoin:miter;stroke-opacity:1"
       x="147.18858"
       y="855.8667"
       id="text4200"
       sodipodi:linespacing="125%"
       transform="scale(0.8832421,1.1321924)"
       inkscape:export-filename="/home/robin/blog/themes/hugo-lithium-theme/static/images/logo.png"
       inkscape:export-xdpi="61.950001"
       inkscape:export-ydpi="61.950001"><tspan
         sodipodi:role="line"
         id="tspan4202"
         x="147.18858"
         y="855.8667">RL</tspan></text>
    <ellipse
       style="opacity:0.34200003;fill:none;stroke:#000000;stroke-width:0.125;stroke-miterlimit:4;stroke-dasharray:none;stroke-opacity:0"
       id="path5112"
       cx="512.29889"
       cy="833.86621"
       rx="57.629204"
       ry="102.53048" />
    <ellipse
       style="opacity:1;fill:#000000;stroke:#e3007c;stroke-width:37.875;stroke-miterlimit:4;stroke-dasharray:none;stroke-opacity:0.60804021"
       id="path5114"
       cx="456.79099"
       cy="822.55249"
       rx="45.254833"
       ry="33.941124" />
    <ellipse
       style="opacity:1;fill:none;stroke:#000000;stroke-width:3.87207317;stroke-miterlimit:3.9000001;stroke-dasharray:none;stroke-opacity:1"
       id="path5116"
       cx="494.28345"
       cy="419.01941"
       rx="13.500201"
       ry="16.169933" />
    <ellipse
       style="opacity:1;fill:none;stroke:#000000;stroke-width:4.19013166;stroke-miterlimit:3.9000001;stroke-dasharray:none;stroke-opacity:1"
       id="path5116-3"
       cx="561.125"
       cy="414.23721"
       rx="15.966172"
       ry="16.010904" />
    <ellipse
       style="opacity:1;fill:none;stroke:#000000;stroke-width:6.25;stroke-miterlimit:3.9000001;stroke-dasharray:none;stroke-opacity:1"
       id="path5133"
       ry="8.4375"
       rx="7.3125"
       cy="362.42471"
       cx="510.3125" />
    <path
       style="fill:none;fill-rule:evenodd;stroke:#000000;stroke-width:6.25;stroke-linecap:butt;stroke-linejoin:miter;stroke-miterlimit:4;stroke-dasharray:none;stroke-opacity:1"
       d="m 517.875,362.86221 c 0,0 35.75,-2.875 40.5,18.25 l -33,5.375"
       id="path5135"
       inkscape:connector-curvature="0" />
    <path
       style="fill:none;fill-rule:evenodd;stroke:#000000;stroke-width:6.25;stroke-linecap:butt;stroke-linejoin:miter;stroke-miterlimit:4;stroke-dasharray:none;stroke-opacity:1"
       d="m 527.75,385.86221 22.875,16.875 -8,9.25"
       id="path5139"
       inkscape:connector-curvature="0" />
    <path
       style="fill:none;fill-rule:evenodd;stroke:#000000;stroke-width:6.25;stroke-linecap:butt;stroke-linejoin:miter;stroke-miterlimit:4;stroke-dasharray:none;stroke-opacity:1"
       d="m 495,418.36221 5.75,-27.625 -6.125,-0.75 1,-15.125 3,2 -5.125,-1.75"
       id="path5141"
       inkscape:connector-curvature="0" />
    <path
       style="fill:none;fill-rule:evenodd;stroke:#000000;stroke-width:6.25;stroke-linecap:butt;stroke-linejoin:round;stroke-miterlimit:4;stroke-dasharray:none;stroke-opacity:1"
       d="m 496.75,375.73721 c 1,0.125 21,8.625 21,8.625 l 7.875,-17.375"
       id="path5143"
       inkscape:connector-curvature="0" />
    <path
       style="fill:none;fill-rule:evenodd;stroke:#000000;stroke-width:6.25;stroke-linecap:butt;stroke-linejoin:round;stroke-miterlimit:4;stroke-dasharray:none;stroke-opacity:1"
       d="m 502.5,395.61221 31,19.625 25.75,0 -21.125,-15.875 -4.625,15.25 4.375,-13.25 -34.75,-9.75 z"
       id="path5145"
       inkscape:connector-curvature="0" />
    <rect
       style="opacity:1;fill:none;stroke:#000000;stroke-width:6.25;stroke-linejoin:round;stroke-miterlimit:4;stroke-dasharray:none;stroke-opacity:1"
       id="rect5149"
       width="165.46306"
       height="40.658638"
       x="455.62299"
       y="483.84836" />
    <rect
       style="opacity:1;fill:none;stroke:#000000;stroke-width:6.25;stroke-linejoin:round;stroke-miterlimit:4;stroke-dasharray:none;stroke-opacity:1"
       id="rect5151"
       width="345.06812"
       height="0.35355338"
       x="362.992"
       y="526.6283" />
    <path
       style="fill:none;fill-rule:evenodd;stroke:#000000;stroke-width:6.25;stroke-linecap:butt;stroke-linejoin:round;stroke-miterlimit:4;stroke-dasharray:none;stroke-opacity:1"
       d="m 620.73241,484.90901 c 0,0 27.22361,39.59798 86.62058,41.0122"
       id="path5153"
       inkscape:connector-curvature="0" />
    <path
       style="fill:none;fill-rule:evenodd;stroke:#000000;stroke-width:6.39382124;stroke-linecap:butt;stroke-linejoin:round;stroke-miterlimit:4;stroke-dasharray:none;stroke-opacity:1"
       d="m 453.46724,485.92009 c 0,0 -28.54685,39.52042 -90.83088,40.93187"
       id="path5153-6"
       inkscape:connector-curvature="0" />
    <g
       inkscape:label="Layer 1"
       id="layer1-5"
       transform="matrix(1.782141,0,0,1.782141,403.68947,310.70927)">
      <g
         id="g3936">
        <path
           d="M 24,2.5 21.625,9.1875 C 22.399,9.0641 23.191,9 24,9 c 0.80859,0 1.601,0.064132 2.375,0.1875 L 24,2.5 Z m -15.188,6.2812 3.0312,6.4375 c 0.93528,-1.2902 2.0848,-2.4397 3.375,-3.375 L 8.8127,8.7809 Z m 30.406,0 -6.4375,3.0625 c 1.2902,0.93528 2.4397,2.0848 3.375,3.375 L 39.218,8.7812 Z m -30.03,12.813 -6.6875,2.375 6.6875,2.375 c -0.1202,-0.764 -0.1875,-1.546 -0.1875,-2.344 0,-0.819 0.0609,-1.622 0.1875,-2.406 z m 29.624,0.031 c 0.124,0.774 0.188,1.566 0.188,2.375 0,0.80859 -0.06413,1.601 -0.1875,2.375 l 6.688,-2.375 -6.688,-2.375 z m -26.968,11.156 -3.0315,6.407 6.4065,-3.032 c -1.2902,-0.93528 -2.4397,-2.0848 -3.375,-3.375 z m 24.312,0 c -0.92646,1.278 -2.0686,2.4135 -3.3438,3.3438 l 6.4062,3.0625 -3.0625,-6.4062 z m -14.531,6.031 2.375,6.688 2.375,-6.688 c -0.774,0.124 -1.566,0.188 -2.375,0.188 -0.809,0 -1.601,-0.064 -2.375,-0.188 z"
           style="fill:none;stroke:#000000;stroke-width:0.73733002;stroke-linecap:square"
           id="path7492"
           inkscape:connector-curvature="0" />
        <circle
           inkscape:r_cx="true"
           transform="matrix(0.77806,-1.0613,1.0613,0.77806,67.48,3.6413)"
           inkscape:r_cy="true"
           style="fill:none;stroke:#000000;stroke-width:0.75990999;stroke-linecap:square;stroke-dasharray:0.75991079, 0.75991079"
           id="path7498"
           cx="-32"
           cy="-17.5"
           r="9.5" />
      </g>
    </g>
    <g
       transform="matrix(0.19490101,0,0,0.19490101,576.38837,179.11598)"
       inkscape:label="Ebene 1"
       id="layer1-6">
      <path
         d="m 12.374,1006 c 150.75,-13.875 302.39,-14.408 455.02,0 -3.444,-95.638 -10.307,-189.32 -7.7782,-288.37 -93.751,3.2588 -147.24,-75.783 -227.58,-13.081 -90.906,-64.653 -90.903,18.62 -222.62,18.385 6.2867,95.682 3.8464,189.18 2.9526,283.07 z"
         inkscape:connector-curvature="0"
         style="fill:#000000;stroke:#000000;stroke-width:4;stroke-linecap:round;stroke-linejoin:round"
         sodipodi:nodetypes="cccccc"
         id="path3877" />
      <path
         d="m 243.95,952.31 c 56.969,-41.116 133.46,25.072 199.4,28.638 L 443,733.098 C 338.73,726.2976 301.77,648.823 242.18,718.602 Z"
         inkscape:connector-curvature="0"
         style="fill:#ffffff"
         sodipodi:nodetypes="ccccc"
         id="path3879" />
      <path
         inkscape:connector-curvature="0"
         style="fill:#ffffff"
         sodipodi:nodetypes="ccccc"
         d="M 222.74,955.14 C 165.77,914.02 89.28,980.21 23.34,983.77 l 0.348,-247.84 c 104.27,-6.8 141.22,-84.27 200.82,-14.49 z"
         id="path3881" />
    </g>
  </g>
</svg>
